<?xml version="1.0" encoding="UTF-8" standalone="no"?>
<svg
   xmlns:dc="http://purl.org/dc/elements/1.1/"
   xmlns:cc="http://creativecommons.org/ns#"
   xmlns:rdf="http://www.w3.org/1999/02/22-rdf-syntax-ns#"
   xmlns:svg="http://www.w3.org/2000/svg"
   xmlns="http://www.w3.org/2000/svg"
   xmlns:xlink="http://www.w3.org/1999/xlink"
   xmlns:sodipodi="http://sodipodi.sourceforge.net/DTD/sodipodi-0.dtd"
   xmlns:inkscape="http://www.inkscape.org/namespaces/inkscape"
   width="220"
   height="56"
   viewBox="0 0 58.208332 14.816667"
   version="1.1"
   id="svg8"
   inkscape:version="1.0.2 (e86c870879, 2021-01-15, custom)"
   sodipodi:docname="logobanner.svg">
  <defs
     id="defs2">
    <linearGradient
       inkscape:collect="always"
       id="linearGradient841">
      <stop
         style="stop-color:#00b050;stop-opacity:1"
         offset="0"
         id="stop837" />
      <stop
         style="stop-color:#00b0f0;stop-opacity:1"
         offset="1"
         id="stop839" />
    </linearGradient>
    <linearGradient
       inkscape:collect="always"
       xlink:href="#linearGradient841"
       id="linearGradient843"
       x1="5.8584166"
       y1="10.936436"
       x2="54.493187"
       y2="3.9874279"
       gradientUnits="userSpaceOnUse" />
  </defs>
  <sodipodi:namedview
     id="base"
     pagecolor="#ffffff"
     bordercolor="#666666"
     borderopacity="1.0"
     inkscape:pageopacity="0.0"
     inkscape:pageshadow="2"
     inkscape:zoom="3.959798"
     inkscape:cx="115.69588"
     inkscape:cy="35.410268"
     inkscape:document-units="mm"
     inkscape:current-layer="layer1"
     inkscape:document-rotation="0"
     showgrid="false"
     units="px"
     inkscape:window-width="1920"
     inkscape:window-height="1027"
     inkscape:window-x="-8"
     inkscape:window-y="22"
     inkscape:window-maximized="1" />
  <metadata
     id="metadata5">
    <rdf:RDF>
      <cc:Work
         rdf:about="">
        <dc:format>image/svg+xml</dc:format>
        <dc:type
           rdf:resource="http://purl.org/dc/dcmitype/StillImage" />
        <dc:title></dc:title>
      </cc:Work>
    </rdf:RDF>
  </metadata>
  <g
     inkscape:label="Layer 1"
     inkscape:groupmode="layer"
     id="layer1">
    <g
       aria-label="Pr0x1mas"
       id="text835"
       style="font-style:normal;font-weight:normal;font-size:10.5833px;line-height:1.25;font-family:sans-serif;fill:url(#linearGradient843);fill-opacity:1;stroke:none;stroke-width:0.264583">
      <path
         d="M 7.7957905,10.914062 8.2402891,8.6915686 h 1.6298282 c 1.6509947,0 2.7622407,-1.1006631 3.0268237,-2.4129923 C 13.161523,4.9556639 12.484192,3.8550007 10.833198,3.8550007 H 7.0655429 L 5.657964,10.914062 Z M 9.965367,6.8289079 H 8.6107046 L 8.8329539,5.7176614 h 1.3546621 c 0.359832,0 0.613832,0.1799161 0.539749,0.5609149 -0.07408,0.3704155 -0.402166,0.5503316 -0.761998,0.5503316 z"
         style="font-style:italic;font-variant:normal;font-weight:normal;font-stretch:normal;font-family:'Proxima Nova Bl';-inkscape-font-specification:'Proxima Nova Bl';fill:url(#linearGradient843);fill-opacity:1;stroke-width:0.264583"
         id="path845" />
      <path
         d="m 14.526756,10.914062 0.624415,-3.1326571 c 0.264582,-0.2539992 0.80433,-0.3598322 1.206496,-0.3598322 0.179916,0 0.338665,0.021167 0.423332,0.052917 l 0.359832,-1.8203276 c -0.582082,0 -1.312329,0.3386656 -1.703911,0.7090811 l 0.116416,-0.5609149 h -1.904994 l -1.02658,5.1117342 z"
         style="font-style:italic;font-variant:normal;font-weight:normal;font-stretch:normal;font-family:'Proxima Nova Bl';-inkscape-font-specification:'Proxima Nova Bl';fill:url(#linearGradient843);fill-opacity:1;stroke-width:0.264583"
         id="path847" />
      <path
         d="m 19.522067,11.041061 c 2.106077,0 3.471322,-1.735661 3.862904,-3.6512382 0.380999,-1.9155773 -0.306915,-3.6406551 -2.412992,-3.6406551 -2.106077,0 -3.471322,1.7250778 -3.852321,3.6406551 -0.391582,1.9155772 0.296332,3.6512382 2.402409,3.6512382 z m 0.370415,-1.8838272 c -0.677331,0 -0.86783,-0.5714982 -0.624414,-1.767411 0.232832,-1.1959129 0.656164,-1.7568278 1.333496,-1.7568278 0.677331,0 0.86783,0.5609149 0.634998,1.7568278 -0.243416,1.1959128 -0.666748,1.767411 -1.34408,1.767411 z"
         style="font-style:italic;font-variant:normal;font-weight:normal;font-stretch:normal;font-family:'Proxima Nova Bl';-inkscape-font-specification:'Proxima Nova Bl';fill:url(#linearGradient843);fill-opacity:1;stroke-width:0.264583"
         id="path849" />
      <path
         d="m 28.507272,10.914062 -1.15358,-2.6246588 2.063744,-2.4870754 h -2.08491 L 26.401195,6.9982407 25.956697,5.8023278 h -2.08491 L 24.9407,8.2894032 22.739373,10.914062 H 24.8137 l 1.09008,-1.3546628 0.518582,1.3546628 z"
         style="font-style:italic;font-variant:normal;font-weight:normal;font-stretch:normal;font-family:'Proxima Nova Bl';-inkscape-font-specification:'Proxima Nova Bl';fill:url(#linearGradient843);fill-opacity:1;stroke-width:0.264583"
         id="path851" />
      <path
         d="M 32.920506,10.914062 34.328084,3.8550007 H 32.48659 l -3.227906,2.6458249 0.96308,1.2594127 1.428746,-1.1853296 -0.867831,4.3391533 z"
         style="font-style:italic;font-variant:normal;font-weight:normal;font-stretch:normal;font-family:'Proxima Nova Bl';-inkscape-font-specification:'Proxima Nova Bl';fill:url(#linearGradient843);fill-opacity:1;stroke-width:0.264583"
         id="path853" />
      <path
         d="m 42.456057,10.914062 0.740831,-3.7041553 c 0.211666,-1.05833 -0.328082,-1.5345785 -1.269996,-1.5345785 -0.825497,0 -1.587495,0.4550819 -1.968493,0.8995805 -0.105833,-0.634998 -0.571499,-0.8995805 -1.291163,-0.8995805 -0.825497,0 -1.555745,0.423332 -1.830911,0.7090811 l 0.116416,-0.5820815 h -1.904993 l -1.026581,5.1117342 h 1.904994 l 0.634998,-3.1538237 c 0.148167,-0.1481662 0.433916,-0.4021654 0.846664,-0.4021654 0.433916,0 0.529165,0.2645825 0.465666,0.5714981 l -0.592665,2.984491 h 1.904994 l 0.634998,-3.1538237 c 0.148166,-0.1481662 0.433915,-0.4021654 0.857247,-0.4021654 0.423332,0 0.529165,0.2645825 0.465665,0.5714981 l -0.592665,2.984491 z"
         style="font-style:italic;font-variant:normal;font-weight:normal;font-stretch:normal;font-family:'Proxima Nova Bl';-inkscape-font-specification:'Proxima Nova Bl';fill:url(#linearGradient843);fill-opacity:1;stroke-width:0.264583"
         id="path855" />
      <path
         d="M 48.372116,10.914062 48.985947,7.8237381 C 49.335196,6.1198268 48.181616,5.6753282 46.91162,5.6753282 c -0.772581,0 -1.767411,0.2222493 -2.571742,0.7725809 l 0.412749,1.1747463 c 0.465665,-0.3069157 1.047747,-0.4974151 1.523995,-0.4974151 0.624415,0 0.888997,0.2751658 0.825498,0.634998 L 46.996287,8.2894032 C 46.784621,7.9401543 46.223706,7.7284884 45.556958,7.7284884 c -0.761998,0 -1.830911,0.3598321 -2.08491,1.6298281 -0.232833,1.1641625 0.666748,1.6827445 1.428745,1.6827445 0.634998,0 1.301746,-0.253999 1.661578,-0.613831 l -0.09525,0.486832 z M 45.937957,9.8028151 c -0.317499,0 -0.645582,-0.09525 -0.582082,-0.4127487 0.0635,-0.317499 0.433916,-0.423332 0.751415,-0.423332 0.296332,0 0.603248,0.09525 0.698497,0.2751658 l -0.0635,0.2857491 c -0.15875,0.1799161 -0.507999,0.2751658 -0.804331,0.2751658 z"
         style="font-style:italic;font-variant:normal;font-weight:normal;font-stretch:normal;font-family:'Proxima Nova Bl';-inkscape-font-specification:'Proxima Nova Bl';fill:url(#linearGradient843);fill-opacity:1;stroke-width:0.264583"
         id="path857" />
      <path
         d="m 51.483584,11.041061 c 1.513411,0 2.571741,-0.740831 2.772824,-1.7568276 0.423332,-2.1272432 -2.582325,-1.5980782 -2.497659,-2.0214102 0.02117,-0.1164163 0.243416,-0.2222493 0.518582,-0.2222493 0.592665,0 1.132413,0.2645825 1.396996,0.529165 l 0.952497,-1.2382461 c -0.518582,-0.3915821 -1.227663,-0.6561646 -2.08491,-0.6561646 -1.481662,0 -2.455326,0.8254974 -2.635242,1.7462445 -0.423332,2.1166599 2.603492,1.4922452 2.508242,1.979077 -0.03175,0.1269996 -0.169333,0.2222493 -0.560915,0.2222493 -0.571498,0 -1.365246,-0.3280823 -1.703911,-0.6455813 l -1.02658,1.2805793 c 0.465665,0.455082 1.418162,0.783164 2.360076,0.783164 z"
         style="font-style:italic;font-variant:normal;font-weight:normal;font-stretch:normal;font-family:'Proxima Nova Bl';-inkscape-font-specification:'Proxima Nova Bl';fill:url(#linearGradient843);fill-opacity:1;stroke-width:0.264583"
         id="path859" />
    </g>
  </g>
</svg>
